# Blender 4.2.1 LTS
# www.blender.org
mtllib plane.mtl
o Cube
v 50.000000 0.100000 -50.000000
v 50.000000 -0.100000 -50.000000
v 50.000000 0.100000 50.000000
v 50.000000 -0.100000 50.000000
v -50.000000 0.100000 -50.000000
v -50.000000 -0.100000 -50.000000
v -50.000000 0.100000 50.000000
v -50.000000 -0.100000 50.000000
v 50.000000 0.100000 -50.000000
v -50.000000 0.100000 -50.000000
v -50.000000 0.100000 50.000000
v 50.000000 0.100000 50.000000
v 50.000000 -0.100000 50.000000
v 50.000000 0.100000 50.000000
v -50.000000 0.100000 50.000000
v -50.000000 -0.100000 50.000000
v -50.000000 -0.100000 50.000000
v -50.000000 0.100000 50.000000
v -50.000000 0.100000 -50.000000
v -50.000000 -0.100000 -50.000000
v -50.000000 -0.100000 -50.000000
v 50.000000 -0.100000 -50.000000
v 50.000000 -0.100000 50.000000
v -50.000000 -0.100000 50.000000
v 50.000000 -0.100000 -50.000000
v 50.000000 0.100000 -50.000000
v 50.000000 0.100000 50.000000
v 50.000000 -0.100000 50.000000
v -50.000000 -0.100000 -50.000000
v -50.000000 0.100000 -50.000000
v 50.000000 0.100000 -50.000000
v 50.000000 -0.100000 -50.000000
vn -0.0000 1.0000 -0.0000
vn -0.0000 -0.0000 1.0000
vn -1.0000 -0.0000 -0.0000
vn -0.0000 -1.0000 -0.0000
vn 1.0000 -0.0000 -0.0000
vn -0.0000 -0.0000 -1.0000
vt 0.500000 -0.000000
vt 0.500000 0.500000
vt 0.000000 0.500000
vt -0.000000 0.000000
vt -0.000000 0.500000
vt 0.500000 1.000000
vt 0.000000 1.000000
s 0
usemtl Material.001
f 9/1/1 10/2/1 11/3/1 12/4/1
f 13/5/2 14/2/2 15/6/2 16/7/2
f 17/7/3 18/6/3 19/2/3 20/5/3
f 21/6/4 22/2/4 23/5/4 24/7/4
f 25/4/5 26/1/5 27/2/5 28/3/5
f 29/3/6 30/2/6 31/1/6 32/4/6
f 1/1/1 5/2/1 10/2/1 9/1/1
f 5/2/1 7/3/1 11/3/1 10/2/1
f 7/3/1 3/4/1 12/4/1 11/3/1
f 3/4/1 1/1/1 9/1/1 12/4/1
f 4/5/1 3/2/1 14/2/1 13/5/1
f 3/2/1 7/6/1 15/6/1 14/2/1
f 7/6/1 8/7/1 16/7/1 15/6/1
f 8/7/1 4/5/1 13/5/1 16/7/1
f 8/7/1 7/6/1 18/6/1 17/7/1
f 7/6/1 5/2/1 19/2/1 18/6/1
f 5/2/1 6/5/1 20/5/1 19/2/1
f 6/5/1 8/7/1 17/7/1 20/5/1
f 6/6/1 2/2/1 22/2/1 21/6/1
f 2/2/1 4/5/1 23/5/1 22/2/1
f 4/5/1 8/7/1 24/7/1 23/5/1
f 8/7/1 6/6/1 21/6/1 24/7/1
f 2/4/1 1/1/1 26/1/1 25/4/1
f 1/1/1 3/2/1 27/2/1 26/1/1
f 3/2/1 4/3/1 28/3/1 27/2/1
f 4/3/1 2/4/1 25/4/1 28/3/1
f 6/3/1 5/2/1 30/2/1 29/3/1
f 5/2/1 1/1/1 31/1/1 30/2/1
f 1/1/1 2/4/1 32/4/1 31/1/1
f 2/4/1 6/3/1 29/3/1 32/4/1
